<svg width="21" height="20" viewBox="0 0 21 20" fill="none" xmlns="http://www.w3.org/2000/svg">
<path d="M10.4492 0.794373C5.11782 0.794373 0.794312 5.13478 0.794312 10.4891C0.794312 14.7716 3.56078 18.4046 7.39907 19.6877C7.88188 19.777 8.0581 19.4777 8.0581 19.2206C8.0581 18.9901 8.04965 18.3805 8.04482 17.5718C5.35922 18.1572 4.79193 16.2719 4.79193 16.2719C4.35378 15.1518 3.7201 14.8536 3.7201 14.8536C2.84261 14.2525 3.78528 14.2646 3.78528 14.2646C4.75451 14.3334 5.26387 15.264 5.26387 15.264C6.12568 16.745 7.5246 16.3177 8.075 16.0691C8.1619 15.4426 8.41175 15.0154 8.68816 14.7728C6.54451 14.5277 4.28981 13.6961 4.28981 9.98213C4.28981 8.92359 4.6664 8.05816 5.28439 7.37982C5.18421 7.1348 4.85349 6.14867 5.37854 4.81492C5.37854 4.81492 6.18965 4.55421 8.03396 5.80829C8.80403 5.59345 9.62963 5.48602 10.4516 5.4824C11.2712 5.48723 12.098 5.59345 12.8692 5.8095C14.7123 4.55542 15.5222 4.81613 15.5222 4.81613C16.0485 6.15108 15.7178 7.136 15.6188 7.38103C16.238 8.05937 16.611 8.92479 16.611 9.98334C16.611 13.707 14.3539 14.5265 12.203 14.7667C12.5494 15.0661 12.8584 15.6575 12.8584 16.5615C12.8584 17.8579 12.8463 18.9031 12.8463 19.2206C12.8463 19.4801 13.0201 19.7818 13.5102 19.6865C17.3424 18.4022 20.1065 14.7703 20.1065 10.4891C20.1065 5.13478 15.783 0.794373 10.4492 0.794373Z" fill="white"/>
</svg>
