<svg width="21" height="21" viewBox="0 0 21 21" fill="none" xmlns="http://www.w3.org/2000/svg">
<path d="M20.1065 20.0992V13.0261C20.1065 9.54989 19.3581 6.89447 15.3026 6.89447C13.3472 6.89447 12.0436 7.95664 11.5125 8.97053H11.4643V7.20829H7.62598V20.0992H11.6333V13.702C11.6333 12.0122 11.9471 10.3948 14.0231 10.3948C16.075 10.3948 16.0992 12.3019 16.0992 13.7986V20.075H20.1065V20.0992Z" fill="white"/>
<path d="M1.10809 7.20825H5.11537V20.0991H1.10809V7.20825Z" fill="white"/>
<path d="M3.11177 0.786987C1.83234 0.786987 0.794312 1.82502 0.794312 3.10445C0.794312 4.38388 1.83234 5.44605 3.11177 5.44605C4.3912 5.44605 5.42923 4.38388 5.42923 3.10445C5.42923 1.82502 4.3912 0.786987 3.11177 0.786987Z" fill="white"/>
</svg>
